<mxfile host="Electron" modified="2023-05-16T20:33:06.113Z" agent="Mozilla/5.0 (X11; Linux x86_64) AppleWebKit/537.36 (KHTML, like Gecko) draw.io/21.2.8 Chrome/112.0.5615.165 Electron/24.2.0 Safari/537.36" etag="_4BsfmXjSB0JGXwYzq0z" version="21.2.8" type="device">
  <diagram name="Page-1" id="I4bAsIrGPMwpG7xKMT-7">
    <mxGraphModel dx="978" dy="586" grid="1" gridSize="10" guides="1" tooltips="1" connect="1" arrows="1" fold="1" page="1" pageScale="1" pageWidth="850" pageHeight="1100" math="0" shadow="0">
      <root>
        <mxCell id="0" />
        <mxCell id="1" parent="0" />
        <mxCell id="ypA4X2V8k0FOF0dMdmKd-18" value="" style="rounded=0;whiteSpace=wrap;html=1;fontSize=14;dashed=1;" vertex="1" parent="1">
          <mxGeometry x="630" y="200" width="160" height="270" as="geometry" />
        </mxCell>
        <mxCell id="ypA4X2V8k0FOF0dMdmKd-1" value="Input Core" style="rounded=0;whiteSpace=wrap;html=1;fontSize=14;fillColor=#dae8fc;strokeColor=#6c8ebf;" vertex="1" parent="1">
          <mxGeometry x="250" y="200" width="160" height="270" as="geometry" />
        </mxCell>
        <mxCell id="ypA4X2V8k0FOF0dMdmKd-4" value="" style="rounded=0;whiteSpace=wrap;html=1;fontSize=14;dashed=1;" vertex="1" parent="1">
          <mxGeometry x="60" y="200" width="160" height="270" as="geometry" />
        </mxCell>
        <mxCell id="ypA4X2V8k0FOF0dMdmKd-33" style="edgeStyle=orthogonalEdgeStyle;rounded=0;orthogonalLoop=1;jettySize=auto;html=1;exitX=1;exitY=0.25;exitDx=0;exitDy=0;entryX=0;entryY=0.167;entryDx=0;entryDy=0;entryPerimeter=0;" edge="1" parent="1" source="ypA4X2V8k0FOF0dMdmKd-5" target="ypA4X2V8k0FOF0dMdmKd-1">
          <mxGeometry relative="1" as="geometry" />
        </mxCell>
        <mxCell id="ypA4X2V8k0FOF0dMdmKd-37" style="edgeStyle=orthogonalEdgeStyle;rounded=0;orthogonalLoop=1;jettySize=auto;html=1;exitX=0;exitY=0.278;exitDx=0;exitDy=0;entryX=1;entryY=0.75;entryDx=0;entryDy=0;exitPerimeter=0;" edge="1" parent="1" source="ypA4X2V8k0FOF0dMdmKd-1" target="ypA4X2V8k0FOF0dMdmKd-5">
          <mxGeometry relative="1" as="geometry" />
        </mxCell>
        <mxCell id="ypA4X2V8k0FOF0dMdmKd-5" value="USB" style="rounded=0;whiteSpace=wrap;html=1;fillColor=#d5e8d4;strokeColor=#82b366;" vertex="1" parent="1">
          <mxGeometry x="80" y="230" width="120" height="60" as="geometry" />
        </mxCell>
        <mxCell id="ypA4X2V8k0FOF0dMdmKd-34" style="edgeStyle=orthogonalEdgeStyle;rounded=0;orthogonalLoop=1;jettySize=auto;html=1;exitX=1;exitY=0.25;exitDx=0;exitDy=0;" edge="1" parent="1" source="ypA4X2V8k0FOF0dMdmKd-6">
          <mxGeometry relative="1" as="geometry">
            <mxPoint x="250" y="405" as="targetPoint" />
          </mxGeometry>
        </mxCell>
        <mxCell id="ypA4X2V8k0FOF0dMdmKd-39" style="edgeStyle=orthogonalEdgeStyle;rounded=0;orthogonalLoop=1;jettySize=auto;html=1;exitX=0;exitY=0.87;exitDx=0;exitDy=0;entryX=1;entryY=0.75;entryDx=0;entryDy=0;exitPerimeter=0;" edge="1" parent="1" source="ypA4X2V8k0FOF0dMdmKd-1" target="ypA4X2V8k0FOF0dMdmKd-6">
          <mxGeometry relative="1" as="geometry" />
        </mxCell>
        <mxCell id="ypA4X2V8k0FOF0dMdmKd-6" value="UART" style="rounded=0;whiteSpace=wrap;html=1;fillColor=#f8cecc;strokeColor=#b85450;" vertex="1" parent="1">
          <mxGeometry x="80" y="390" width="120" height="60" as="geometry" />
        </mxCell>
        <mxCell id="ypA4X2V8k0FOF0dMdmKd-32" style="edgeStyle=orthogonalEdgeStyle;rounded=0;orthogonalLoop=1;jettySize=auto;html=1;exitX=1;exitY=0.25;exitDx=0;exitDy=0;entryX=0;entryY=0.445;entryDx=0;entryDy=0;entryPerimeter=0;" edge="1" parent="1" source="ypA4X2V8k0FOF0dMdmKd-7" target="ypA4X2V8k0FOF0dMdmKd-1">
          <mxGeometry relative="1" as="geometry" />
        </mxCell>
        <mxCell id="ypA4X2V8k0FOF0dMdmKd-38" style="edgeStyle=orthogonalEdgeStyle;rounded=0;orthogonalLoop=1;jettySize=auto;html=1;exitX=0;exitY=0.556;exitDx=0;exitDy=0;entryX=1;entryY=0.75;entryDx=0;entryDy=0;exitPerimeter=0;" edge="1" parent="1" source="ypA4X2V8k0FOF0dMdmKd-1" target="ypA4X2V8k0FOF0dMdmKd-7">
          <mxGeometry relative="1" as="geometry">
            <mxPoint x="240" y="350.2380952380952" as="sourcePoint" />
          </mxGeometry>
        </mxCell>
        <mxCell id="ypA4X2V8k0FOF0dMdmKd-7" value="PS/2" style="rounded=0;whiteSpace=wrap;html=1;fillColor=#f8cecc;strokeColor=#b85450;" vertex="1" parent="1">
          <mxGeometry x="80" y="305" width="120" height="60" as="geometry" />
        </mxCell>
        <mxCell id="ypA4X2V8k0FOF0dMdmKd-8" value="Modules" style="text;html=1;strokeColor=none;fillColor=none;align=center;verticalAlign=middle;whiteSpace=wrap;rounded=0;fontSize=14;" vertex="1" parent="1">
          <mxGeometry x="110" y="200" width="60" height="30" as="geometry" />
        </mxCell>
        <mxCell id="ypA4X2V8k0FOF0dMdmKd-11" value="..." style="text;strokeColor=none;fillColor=none;html=1;fontSize=24;fontStyle=1;verticalAlign=middle;align=center;" vertex="1" parent="1">
          <mxGeometry x="95" y="365" width="90" height="15" as="geometry" />
        </mxCell>
        <mxCell id="ypA4X2V8k0FOF0dMdmKd-12" value="" style="rounded=0;whiteSpace=wrap;html=1;fontSize=14;dashed=1;" vertex="1" parent="1">
          <mxGeometry x="440" y="200" width="160" height="270" as="geometry" />
        </mxCell>
        <mxCell id="ypA4X2V8k0FOF0dMdmKd-25" style="edgeStyle=orthogonalEdgeStyle;rounded=0;orthogonalLoop=1;jettySize=auto;html=1;exitX=1;exitY=0.25;exitDx=0;exitDy=0;entryX=0;entryY=0.25;entryDx=0;entryDy=0;" edge="1" parent="1" source="ypA4X2V8k0FOF0dMdmKd-13" target="ypA4X2V8k0FOF0dMdmKd-20">
          <mxGeometry relative="1" as="geometry" />
        </mxCell>
        <mxCell id="ypA4X2V8k0FOF0dMdmKd-13" value="Keyboard&lt;br&gt;Handler" style="rounded=0;whiteSpace=wrap;html=1;fillColor=#dae8fc;strokeColor=#6c8ebf;" vertex="1" parent="1">
          <mxGeometry x="460" y="230" width="120" height="60" as="geometry" />
        </mxCell>
        <mxCell id="ypA4X2V8k0FOF0dMdmKd-28" style="edgeStyle=orthogonalEdgeStyle;rounded=0;orthogonalLoop=1;jettySize=auto;html=1;exitX=1;exitY=0.25;exitDx=0;exitDy=0;entryX=0;entryY=0.25;entryDx=0;entryDy=0;" edge="1" parent="1" source="ypA4X2V8k0FOF0dMdmKd-14" target="ypA4X2V8k0FOF0dMdmKd-21">
          <mxGeometry relative="1" as="geometry" />
        </mxCell>
        <mxCell id="ypA4X2V8k0FOF0dMdmKd-14" value="Event&lt;br&gt;Handler" style="rounded=0;whiteSpace=wrap;html=1;fillColor=#dae8fc;strokeColor=#6c8ebf;" vertex="1" parent="1">
          <mxGeometry x="460" y="390" width="120" height="60" as="geometry" />
        </mxCell>
        <mxCell id="ypA4X2V8k0FOF0dMdmKd-26" style="edgeStyle=orthogonalEdgeStyle;rounded=0;orthogonalLoop=1;jettySize=auto;html=1;exitX=1;exitY=0.25;exitDx=0;exitDy=0;entryX=0;entryY=0.25;entryDx=0;entryDy=0;" edge="1" parent="1" source="ypA4X2V8k0FOF0dMdmKd-15" target="ypA4X2V8k0FOF0dMdmKd-22">
          <mxGeometry relative="1" as="geometry" />
        </mxCell>
        <mxCell id="ypA4X2V8k0FOF0dMdmKd-15" value="Mouse&lt;br&gt;Handler" style="rounded=0;whiteSpace=wrap;html=1;fillColor=#dae8fc;strokeColor=#6c8ebf;" vertex="1" parent="1">
          <mxGeometry x="460" y="305" width="120" height="60" as="geometry" />
        </mxCell>
        <mxCell id="ypA4X2V8k0FOF0dMdmKd-16" value="Handlers" style="text;html=1;strokeColor=none;fillColor=none;align=center;verticalAlign=middle;whiteSpace=wrap;rounded=0;fontSize=14;" vertex="1" parent="1">
          <mxGeometry x="490" y="200" width="60" height="30" as="geometry" />
        </mxCell>
        <mxCell id="ypA4X2V8k0FOF0dMdmKd-17" value="..." style="text;strokeColor=none;fillColor=none;html=1;fontSize=24;fontStyle=1;verticalAlign=middle;align=center;" vertex="1" parent="1">
          <mxGeometry x="475" y="365" width="90" height="15" as="geometry" />
        </mxCell>
        <mxCell id="ypA4X2V8k0FOF0dMdmKd-19" value="Userspace" style="text;html=1;strokeColor=none;fillColor=none;align=center;verticalAlign=middle;whiteSpace=wrap;rounded=0;fontSize=14;" vertex="1" parent="1">
          <mxGeometry x="670" y="200" width="80" height="30" as="geometry" />
        </mxCell>
        <mxCell id="ypA4X2V8k0FOF0dMdmKd-24" style="edgeStyle=orthogonalEdgeStyle;rounded=0;orthogonalLoop=1;jettySize=auto;html=1;exitX=0;exitY=0.75;exitDx=0;exitDy=0;entryX=1;entryY=0.75;entryDx=0;entryDy=0;" edge="1" parent="1" source="ypA4X2V8k0FOF0dMdmKd-20" target="ypA4X2V8k0FOF0dMdmKd-13">
          <mxGeometry relative="1" as="geometry" />
        </mxCell>
        <mxCell id="ypA4X2V8k0FOF0dMdmKd-20" value="TTY subsystem" style="rounded=0;whiteSpace=wrap;html=1;fillColor=#f8cecc;strokeColor=#b85450;" vertex="1" parent="1">
          <mxGeometry x="650" y="230" width="120" height="60" as="geometry" />
        </mxCell>
        <mxCell id="ypA4X2V8k0FOF0dMdmKd-29" style="edgeStyle=orthogonalEdgeStyle;rounded=0;orthogonalLoop=1;jettySize=auto;html=1;exitX=0;exitY=0.75;exitDx=0;exitDy=0;entryX=1;entryY=0.75;entryDx=0;entryDy=0;" edge="1" parent="1" source="ypA4X2V8k0FOF0dMdmKd-21" target="ypA4X2V8k0FOF0dMdmKd-14">
          <mxGeometry relative="1" as="geometry" />
        </mxCell>
        <mxCell id="ypA4X2V8k0FOF0dMdmKd-21" value="&amp;nbsp; &amp;nbsp;/dev/input/eventX" style="rounded=0;whiteSpace=wrap;html=1;fillColor=#d5e8d4;strokeColor=#82b366;align=left;" vertex="1" parent="1">
          <mxGeometry x="650" y="390" width="120" height="60" as="geometry" />
        </mxCell>
        <mxCell id="ypA4X2V8k0FOF0dMdmKd-27" style="edgeStyle=orthogonalEdgeStyle;rounded=0;orthogonalLoop=1;jettySize=auto;html=1;exitX=0;exitY=0.75;exitDx=0;exitDy=0;entryX=1;entryY=0.75;entryDx=0;entryDy=0;" edge="1" parent="1" source="ypA4X2V8k0FOF0dMdmKd-22" target="ypA4X2V8k0FOF0dMdmKd-15">
          <mxGeometry relative="1" as="geometry" />
        </mxCell>
        <mxCell id="ypA4X2V8k0FOF0dMdmKd-22" value="&amp;nbsp; &amp;nbsp;/dev/input/mouseX&lt;br&gt;&amp;nbsp; &amp;nbsp;/dev/input/mice" style="rounded=0;whiteSpace=wrap;html=1;fillColor=#d5e8d4;strokeColor=#82b366;align=left;" vertex="1" parent="1">
          <mxGeometry x="650" y="305" width="120" height="60" as="geometry" />
        </mxCell>
        <mxCell id="ypA4X2V8k0FOF0dMdmKd-30" value="..." style="text;strokeColor=none;fillColor=none;html=1;fontSize=24;fontStyle=1;verticalAlign=middle;align=center;" vertex="1" parent="1">
          <mxGeometry x="665" y="365" width="90" height="15" as="geometry" />
        </mxCell>
        <mxCell id="ypA4X2V8k0FOF0dMdmKd-40" style="edgeStyle=orthogonalEdgeStyle;rounded=0;orthogonalLoop=1;jettySize=auto;html=1;exitX=1;exitY=0.25;exitDx=0;exitDy=0;entryX=0;entryY=0.167;entryDx=0;entryDy=0;entryPerimeter=0;" edge="1" parent="1">
          <mxGeometry relative="1" as="geometry">
            <mxPoint x="410" y="239.76" as="sourcePoint" />
            <mxPoint x="460" y="239.76" as="targetPoint" />
          </mxGeometry>
        </mxCell>
        <mxCell id="ypA4X2V8k0FOF0dMdmKd-41" style="edgeStyle=orthogonalEdgeStyle;rounded=0;orthogonalLoop=1;jettySize=auto;html=1;exitX=0;exitY=0.278;exitDx=0;exitDy=0;entryX=1;entryY=0.75;entryDx=0;entryDy=0;exitPerimeter=0;" edge="1" parent="1">
          <mxGeometry relative="1" as="geometry">
            <mxPoint x="460" y="269.76" as="sourcePoint" />
            <mxPoint x="410" y="269.76" as="targetPoint" />
          </mxGeometry>
        </mxCell>
        <mxCell id="ypA4X2V8k0FOF0dMdmKd-42" style="edgeStyle=orthogonalEdgeStyle;rounded=0;orthogonalLoop=1;jettySize=auto;html=1;exitX=1;exitY=0.25;exitDx=0;exitDy=0;" edge="1" parent="1">
          <mxGeometry relative="1" as="geometry">
            <mxPoint x="410" y="399.76" as="sourcePoint" />
            <mxPoint x="460" y="399.76" as="targetPoint" />
          </mxGeometry>
        </mxCell>
        <mxCell id="ypA4X2V8k0FOF0dMdmKd-43" style="edgeStyle=orthogonalEdgeStyle;rounded=0;orthogonalLoop=1;jettySize=auto;html=1;exitX=0;exitY=0.87;exitDx=0;exitDy=0;entryX=1;entryY=0.75;entryDx=0;entryDy=0;exitPerimeter=0;" edge="1" parent="1">
          <mxGeometry relative="1" as="geometry">
            <mxPoint x="460" y="429.76" as="sourcePoint" />
            <mxPoint x="410" y="429.76" as="targetPoint" />
          </mxGeometry>
        </mxCell>
        <mxCell id="ypA4X2V8k0FOF0dMdmKd-44" style="edgeStyle=orthogonalEdgeStyle;rounded=0;orthogonalLoop=1;jettySize=auto;html=1;exitX=1;exitY=0.25;exitDx=0;exitDy=0;entryX=0;entryY=0.445;entryDx=0;entryDy=0;entryPerimeter=0;" edge="1" parent="1">
          <mxGeometry relative="1" as="geometry">
            <mxPoint x="410" y="314.76" as="sourcePoint" />
            <mxPoint x="460" y="314.76" as="targetPoint" />
          </mxGeometry>
        </mxCell>
        <mxCell id="ypA4X2V8k0FOF0dMdmKd-45" style="edgeStyle=orthogonalEdgeStyle;rounded=0;orthogonalLoop=1;jettySize=auto;html=1;exitX=0;exitY=0.556;exitDx=0;exitDy=0;entryX=1;entryY=0.75;entryDx=0;entryDy=0;exitPerimeter=0;" edge="1" parent="1">
          <mxGeometry relative="1" as="geometry">
            <mxPoint x="410" y="344.76" as="targetPoint" />
            <mxPoint x="460" y="344.76" as="sourcePoint" />
          </mxGeometry>
        </mxCell>
      </root>
    </mxGraphModel>
  </diagram>
</mxfile>
